<svg width="12" height="20" viewBox="0 0 12 20" fill="none" xmlns="http://www.w3.org/2000/svg">
<path fill-rule="evenodd" clip-rule="evenodd" d="M11.7142 17.9058C11.7187 17.356 11.5145 16.8251 11.1428 16.4201L5.06853 10.0001L11.1428 3.58005C11.515 3.17619 11.7216 2.6471 11.7216 2.09791C11.7216 1.54872 11.515 1.01963 11.1428 0.615767C10.9648 0.421553 10.7484 0.266476 10.5072 0.160386C10.2661 0.0542964 10.0055 -0.000488281 9.7421 -0.000488281C9.47865 -0.000488281 9.21809 0.0542964 8.97695 0.160386C8.73582 0.266476 8.51938 0.421553 8.34138 0.615767L0.867097 8.51862C0.493366 8.92085 0.285645 9.44957 0.285645 9.99862C0.285645 10.5477 0.493366 11.0764 0.867097 11.4786L8.33424 19.3843C8.51224 19.5786 8.72867 19.7336 8.96981 19.8397C9.21095 19.9458 9.47151 20.0006 9.73495 20.0006C9.9984 20.0006 10.259 19.9458 10.5001 19.8397C10.7412 19.7336 10.9577 19.5786 11.1357 19.3843C11.5069 18.9819 11.7112 18.4533 11.7071 17.9058" fill="#403B36"/>
</svg>
