<svg width="16" height="16" viewBox="0 0 16 16" fill="none" xmlns="http://www.w3.org/2000/svg">
<g opacity="0.75" clip-path="url(#clip0_3_700)">
<path fill-rule="evenodd" clip-rule="evenodd" d="M3.42841 1.67524C3.42485 2.11501 3.58822 2.53977 3.88556 2.86381L8.74498 7.99981L3.88556 13.1358C3.58782 13.4589 3.42254 13.8822 3.42254 14.3215C3.42254 14.7609 3.58782 15.1842 3.88556 15.5072C4.02795 15.6626 4.2011 15.7867 4.39401 15.8715C4.58692 15.9564 4.79537 16.0002 5.00613 16.0002C5.21688 16.0002 5.42533 15.9564 5.61824 15.8715C5.81115 15.7867 5.9843 15.6626 6.1267 15.5072L12.1061 9.18496C12.4051 8.86318 12.5713 8.4402 12.5713 8.00096C12.5713 7.56171 12.4051 7.13873 12.1061 6.81696L6.13241 0.492384C5.99002 0.337013 5.81687 0.212952 5.62396 0.12808C5.43105 0.0432075 5.2226 -0.000618623 5.01184 -0.000618642C4.80109 -0.00061866 4.59264 0.0432074 4.39973 0.12808C4.20682 0.212952 4.03367 0.337012 3.89127 0.492384C3.59429 0.814365 3.43087 1.23723 3.43413 1.67524" fill="#595550"/>
</g>
<defs>
<clipPath id="clip0_3_700">
<rect width="16" height="16" fill="white" transform="translate(16 16) rotate(-180)"/>
</clipPath>
</defs>
</svg>
