<svg width="24" height="24" viewBox="0 0 24 24" fill="none" xmlns="http://www.w3.org/2000/svg">
<path fill-rule="evenodd" clip-rule="evenodd" d="M6 9.0006C6 5.68656 8.68656 3 12.0006 3C15.3146 3 18.0012 5.68656 18.0012 9.0006C18.0012 12.3146 15.3146 15.0012 12.0006 15.0012C8.68656 15.0012 6 12.3146 6 9.0006Z" fill="#D9614C"/>
<path d="M7.11003 14.0099L6.14636 16.9009C5.28716 19.4785 8.02287 21.7795 10.4151 20.4913L11.5267 19.8928C11.8227 19.7334 12.179 19.7334 12.475 19.8928L13.5865 20.4913C15.9788 21.7795 18.7145 19.4785 17.8553 16.9009L16.8915 14.0095C15.6296 15.2419 13.9038 16.0014 12.0006 16.0014C10.0976 16.0014 8.37191 15.2421 7.11003 14.0099Z" fill="#D9614C"/>
</svg>
