<svg width="24" height="24" viewBox="0 0 24 24" fill="none" xmlns="http://www.w3.org/2000/svg">
<path fill-rule="evenodd" clip-rule="evenodd" d="M19.0188 8.87995C20.3065 7.58704 20.2519 5.88921 19.2902 4.84946C18.8213 4.34248 18.154 4.01864 17.398 4.00078C16.6393 3.98286 15.8533 4.27301 15.1279 4.87988C15.1094 4.8954 15.0915 4.91175 15.0745 4.92889L4.69956 15.3453C4.25154 15.7951 4 16.4041 4 17.0389V18.3937C4 19.2749 4.71357 20 5.60305 20H6.94609C7.58426 20 8.19615 19.7458 8.64651 19.2937L19.0188 8.87995ZM16.3071 6.89293C15.9165 6.50241 15.2834 6.5024 14.8928 6.89293C14.5023 7.28345 14.5023 7.91661 14.8928 8.30714L15.6928 9.10714C16.0834 9.49767 16.7165 9.49767 17.107 9.10715C17.4976 8.71662 17.4976 8.08346 17.1071 7.69293L16.3071 6.89293Z" fill="#D9614C"/>
</svg>
