<svg width="6" height="20" viewBox="0 0 6 20" fill="none" xmlns="http://www.w3.org/2000/svg">
<path fill-rule="evenodd" clip-rule="evenodd" d="M0.5 17.5C0.5 17.9945 0.646623 18.4778 0.921326 18.8889C1.19603 19.3 1.58648 19.6205 2.04329 19.8097C2.50011 19.9989 3.00277 20.0484 3.48773 19.952C3.97268 19.8555 4.41814 19.6174 4.76777 19.2678C5.1174 18.9181 5.3555 18.4727 5.45196 17.9877C5.54843 17.5028 5.49892 17.0001 5.3097 16.5433C5.12048 16.0865 4.80005 15.696 4.38893 15.4213C3.9778 15.1466 3.49445 15 3 15C2.67164 14.9998 2.34647 15.0643 2.04307 15.1899C1.73967 15.3155 1.464 15.4996 1.23181 15.7318C0.999631 15.964 0.815489 16.2397 0.689919 16.5431C0.564349 16.8465 0.499813 17.1716 0.5 17.5ZM0.5 10C0.5 10.4945 0.646623 10.9778 0.921326 11.3889C1.19603 11.8 1.58648 12.1205 2.04329 12.3097C2.50011 12.4989 3.00277 12.5484 3.48773 12.452C3.97268 12.3555 4.41814 12.1174 4.76777 11.7678C5.1174 11.4181 5.3555 10.9727 5.45196 10.4877C5.54843 10.0028 5.49892 9.50011 5.3097 9.04329C5.12048 8.58648 4.80005 8.19603 4.38893 7.92133C3.9778 7.64662 3.49445 7.5 3 7.5C2.67164 7.49981 2.34647 7.56435 2.04307 7.68992C1.73967 7.81549 1.464 7.99963 1.23181 8.23181C0.999631 8.464 0.815489 8.73967 0.689919 9.04307C0.564349 9.34647 0.499813 9.67164 0.5 10ZM0.5 2.5C0.5 2.99445 0.646623 3.4778 0.921326 3.88893C1.19603 4.30005 1.58648 4.62048 2.04329 4.8097C2.50011 4.99892 3.00277 5.04843 3.48773 4.95196C3.97268 4.8555 4.41814 4.6174 4.76777 4.26777C5.1174 3.91814 5.3555 3.47268 5.45196 2.98773C5.54843 2.50277 5.49892 2.00011 5.3097 1.54329C5.12048 1.08648 4.80005 0.69603 4.38893 0.421326C3.9778 0.146623 3.49445 4.08668e-07 3 4.08668e-07C2.67164 -0.000187385 2.34647 0.0643488 2.04307 0.189919C1.73967 0.315489 1.464 0.499631 1.23181 0.731815C0.999631 0.963998 0.815489 1.23967 0.689919 1.54307C0.564349 1.84647 0.499813 2.17164 0.5 2.5Z" fill="#403B36"/>
</svg>
