<svg width="24" height="24" viewBox="0 0 24 24" fill="none" xmlns="http://www.w3.org/2000/svg">
<path d="M13 8.99994C13 8.7167 13.1224 8.48688 13.2539 8.37084C13.3152 8.31671 13.3672 8.29629 13.4023 8.28956C13.4321 8.28385 13.4801 8.28144 13.5577 8.31429C14.9948 8.9226 16 10.345 16 11.9999C16 13.6548 14.9948 15.0773 13.5577 15.6856C13.4801 15.7184 13.4321 15.716 13.4023 15.7103C13.3672 15.7036 13.3152 15.6832 13.2539 15.629C13.1224 15.513 13 15.2832 13 14.9999V8.99994Z" fill="#D9614C"/>
<path fill-rule="evenodd" clip-rule="evenodd" d="M12 2C6.47715 2 2 6.47715 2 12C2 17.5228 6.47715 22 12 22C17.5228 22 22 17.5228 22 12C22 6.47715 17.5228 2 12 2ZM14.3373 6.47256C13.4346 6.09047 12.5449 6.3293 11.9307 6.8712C11.3428 7.38993 11 8.17867 11 9V15C11 15.8213 11.3428 16.6101 11.9307 17.1288C12.5449 17.6707 13.4346 17.9095 14.3373 17.5274C16.488 16.6171 18 14.4863 18 12C18 9.51373 16.488 7.38292 14.3373 6.47256Z" fill="#D9614C"/>
</svg>
